<svg xmlns="http://www.w3.org/2000/svg"  viewBox="0 0 24 24" width="48px" height="48px" baseProfile="basic"><linearGradient id="h98aD_8VoQn1P_llkEXUBa" x1="4.172" x2="9.828" y1="4.172" y2="9.828" gradientUnits="userSpaceOnUse"><stop offset="0" stop-color="#fff" stop-opacity=".6"/><stop offset="1" stop-color="#fff" stop-opacity=".3"/></linearGradient><circle cx="7" cy="7" r="4" fill="url(#h98aD_8VoQn1P_llkEXUBa)"/><linearGradient id="h98aD_8VoQn1P_llkEXUBb" x1="4.172" x2="9.828" y1="4.172" y2="9.828" gradientUnits="userSpaceOnUse"><stop offset="0" stop-color="#fff" stop-opacity=".6"/><stop offset=".493" stop-color="#fff" stop-opacity="0"/><stop offset=".997" stop-color="#fff" stop-opacity=".3"/></linearGradient><path fill="url(#h98aD_8VoQn1P_llkEXUBb)" d="M7,3.5c1.93,0,3.5,1.57,3.5,3.5 S8.93,10.5,7,10.5S3.5,8.93,3.5,7S5.07,3.5,7,3.5 M7,3C4.791,3,3,4.791,3,7s1.791,4,4,4s4-1.791,4-4S9.209,3,7,3L7,3z"/><g><linearGradient id="h98aD_8VoQn1P_llkEXUBc" x1="13.586" x2="20.414" y1="3.586" y2="10.414" gradientUnits="userSpaceOnUse"><stop offset="0" stop-color="#fff" stop-opacity=".6"/><stop offset="1" stop-color="#fff" stop-opacity=".3"/></linearGradient><path fill="url(#h98aD_8VoQn1P_llkEXUBc)" d="M15,3c-1.105,0-2,0.895-2,2v4 c0,1.105,0.895,2,2,2h4c1.105,0,2-0.895,2-2V5c0-1.105-0.895-2-2-2H15z"/><linearGradient id="h98aD_8VoQn1P_llkEXUBd" x1="13.586" x2="20.414" y1="3.586" y2="10.414" gradientUnits="userSpaceOnUse"><stop offset="0" stop-color="#fff" stop-opacity=".6"/><stop offset=".493" stop-color="#fff" stop-opacity="0"/><stop offset=".997" stop-color="#fff" stop-opacity=".3"/></linearGradient><path fill="url(#h98aD_8VoQn1P_llkEXUBd)" d="M19,3.5c0.827,0,1.5,0.673,1.5,1.5v4 c0,0.827-0.673,1.5-1.5,1.5h-4c-0.827,0-1.5-0.673-1.5-1.5V5c0-0.827,0.673-1.5,1.5-1.5H19 M19,3h-4c-1.105,0-2,0.895-2,2v4 c0,1.105,0.895,2,2,2h4c1.105,0,2-0.895,2-2V5C21,3.895,20.105,3,19,3L19,3z"/></g><g><linearGradient id="h98aD_8VoQn1P_llkEXUBe" x1="4.045" x2="9.954" y1="15.551" y2="21.459" gradientUnits="userSpaceOnUse"><stop offset="0" stop-color="#fff" stop-opacity=".6"/><stop offset="1" stop-color="#fff" stop-opacity=".3"/></linearGradient><path fill="url(#h98aD_8VoQn1P_llkEXUBe)" d="M10,21H4 c-0.347,0-0.668-0.18-0.851-0.475s-0.199-0.663-0.044-0.973l3-6c0.339-0.678,1.45-0.678,1.789,0l3,6 c0.155,0.31,0.138,0.678-0.044,0.973S10.347,21,10,21z"/><linearGradient id="h98aD_8VoQn1P_llkEXUBf" x1="4.045" x2="9.954" y1="15.551" y2="21.459" gradientUnits="userSpaceOnUse"><stop offset="0" stop-color="#fff" stop-opacity=".6"/><stop offset=".493" stop-color="#fff" stop-opacity="0"/><stop offset=".997" stop-color="#fff" stop-opacity=".3"/></linearGradient><path fill="url(#h98aD_8VoQn1P_llkEXUBf)" d="M7,13.544 c0.16,0,0.362,0.061,0.447,0.232l3,6c0.077,0.154,0.068,0.34-0.022,0.486C10.333,20.411,10.174,20.5,10,20.5H4 c-0.174,0-0.333-0.089-0.425-0.237c-0.09-0.146-0.099-0.333-0.022-0.486l3-6C6.638,13.605,6.84,13.544,7,13.544 M7,13.044 c-0.363,0-0.725,0.169-0.895,0.508l-3,6c-0.155,0.31-0.138,0.678,0.044,0.973C3.332,20.82,3.653,21,4,21h6 c0.347,0,0.668-0.18,0.851-0.475c0.182-0.295,0.199-0.663,0.044-0.973l-3-6C7.725,13.214,7.363,13.044,7,13.044L7,13.044z"/></g><g><linearGradient id="h98aD_8VoQn1P_llkEXUBg" x1="13.492" x2="19.508" y1="14.426" y2="20.442" gradientUnits="userSpaceOnUse"><stop offset="0" stop-color="#fff" stop-opacity=".6"/><stop offset="1" stop-color="#fff" stop-opacity=".3"/></linearGradient><path fill="url(#h98aD_8VoQn1P_llkEXUBg)" d="M18.536,21h-4.072 c-0.433,0-0.817-0.279-0.951-0.69l-1.259-3.873c-0.134-0.412,0.013-0.864,0.363-1.118l3.295-2.394 c0.351-0.256,0.825-0.256,1.176,0l3.295,2.394c0.351,0.254,0.497,0.706,0.363,1.118l-1.259,3.873 C19.353,20.721,18.969,21,18.536,21z"/><linearGradient id="h98aD_8VoQn1P_llkEXUBh" x1="13.492" x2="19.508" y1="14.426" y2="20.442" gradientUnits="userSpaceOnUse"><stop offset="0" stop-color="#fff" stop-opacity=".6"/><stop offset=".493" stop-color="#fff" stop-opacity="0"/><stop offset=".997" stop-color="#fff" stop-opacity=".3"/></linearGradient><path fill="url(#h98aD_8VoQn1P_llkEXUBh)" d="M16.5,13.233 c0.106,0,0.207,0.033,0.294,0.096l3.296,2.394c0.175,0.127,0.248,0.352,0.181,0.559l-1.259,3.872 c-0.068,0.207-0.259,0.346-0.476,0.346h-4.072c-0.217,0-0.408-0.139-0.476-0.345l-1.259-3.873 c-0.067-0.207,0.005-0.432,0.182-0.559l3.296-2.394C16.293,13.266,16.394,13.233,16.5,13.233 M16.5,12.733 c-0.206,0-0.413,0.064-0.588,0.192l-3.295,2.394c-0.351,0.254-0.497,0.706-0.363,1.118l1.259,3.873 c0.134,0.411,0.518,0.69,0.951,0.69h4.072c0.433,0,0.817-0.279,0.951-0.69l1.259-3.873c0.134-0.412-0.013-0.864-0.363-1.118 l-3.295-2.394C16.913,12.797,16.706,12.733,16.5,12.733L16.5,12.733z"/></g></svg>