<svg xmlns="http://www.w3.org/2000/svg"  viewBox="0 0 24 24" width="100px" height="100px"><linearGradient id="AJEAekaj3Hi9mDkm3UkgNa" x1="3.879" x2="20.121" y1="3.879" y2="20.121" gradientUnits="userSpaceOnUse"><stop offset="0" stop-color="#fff" stop-opacity=".6"/><stop offset="1" stop-color="#fff" stop-opacity=".3"/></linearGradient><path fill="url(#AJEAekaj3Hi9mDkm3UkgNa)" d="M18,21H6c-1.657,0-3-1.343-3-3V6c0-1.657,1.343-3,3-3h12c1.657,0,3,1.343,3,3v12 C21,19.657,19.657,21,18,21z"/><linearGradient id="AJEAekaj3Hi9mDkm3UkgNb" x1="3" x2="21" y1="12" y2="12" gradientUnits="userSpaceOnUse"><stop offset="0" stop-color="#fff" stop-opacity=".6"/><stop offset=".493" stop-color="#fff" stop-opacity="0"/><stop offset=".997" stop-color="#fff" stop-opacity=".3"/></linearGradient><path fill="url(#AJEAekaj3Hi9mDkm3UkgNb)" d="M18,3.5c1.378,0,2.5,1.121,2.5,2.5v12 c0,1.379-1.122,2.5-2.5,2.5H6c-1.378,0-2.5-1.121-2.5-2.5V6c0-1.379,1.122-2.5,2.5-2.5H18 M18,3H6C4.343,3,3,4.343,3,6v12 c0,1.657,1.343,3,3,3h12c1.657,0,3-1.343,3-3V6C21,4.343,19.657,3,18,3L18,3z"/><linearGradient id="AJEAekaj3Hi9mDkm3UkgNc" x1="6.293" x2="10.707" y1="13.293" y2="17.707" gradientUnits="userSpaceOnUse"><stop offset="0" stop-color="#fff" stop-opacity=".6"/><stop offset="1" stop-color="#fff" stop-opacity=".3"/></linearGradient><path fill="url(#AJEAekaj3Hi9mDkm3UkgNc)" d="M10,18H7c-0.552,0-1-0.448-1-1v-3 c0-0.552,0.448-1,1-1h3c0.552,0,1,0.448,1,1v3C11,17.552,10.552,18,10,18z"/><g><linearGradient id="AJEAekaj3Hi9mDkm3UkgNd" x1="13.293" x2="17.707" y1="13.293" y2="17.707" gradientUnits="userSpaceOnUse"><stop offset="0" stop-color="#fff" stop-opacity=".6"/><stop offset="1" stop-color="#fff" stop-opacity=".3"/></linearGradient><path fill="url(#AJEAekaj3Hi9mDkm3UkgNd)" d="M17,18h-3c-0.552,0-1-0.448-1-1v-3 c0-0.552,0.448-1,1-1h3c0.552,0,1,0.448,1,1v3C18,17.552,17.552,18,17,18z"/></g><g><linearGradient id="AJEAekaj3Hi9mDkm3UkgNe" x1="6.293" x2="10.707" y1="6.293" y2="10.707" gradientUnits="userSpaceOnUse"><stop offset="0" stop-color="#fff" stop-opacity=".6"/><stop offset="1" stop-color="#fff" stop-opacity=".3"/></linearGradient><path fill="url(#AJEAekaj3Hi9mDkm3UkgNe)" d="M10,11H7c-0.552,0-1-0.448-1-1V7 c0-0.552,0.448-1,1-1h3c0.552,0,1,0.448,1,1v3C11,10.552,10.552,11,10,11z"/></g><g><linearGradient id="AJEAekaj3Hi9mDkm3UkgNf" x1="13.293" x2="17.707" y1="6.293" y2="10.707" gradientUnits="userSpaceOnUse"><stop offset="0" stop-color="#fff" stop-opacity=".6"/><stop offset="1" stop-color="#fff" stop-opacity=".3"/></linearGradient><path fill="url(#AJEAekaj3Hi9mDkm3UkgNf)" d="M17,11h-3c-0.552,0-1-0.448-1-1V7 c0-0.552,0.448-1,1-1h3c0.552,0,1,0.448,1,1v3C18,10.552,17.552,11,17,11z"/></g></svg>