<svg xmlns="http://www.w3.org/2000/svg"  viewBox="0 0 24 24" width="48px" height="48px" baseProfile="basic"><linearGradient id="EQR0dRBSN0L83QGXcNy5Ya" x1="2.184" x2="22" y1="11.998" y2="11.998" gradientUnits="userSpaceOnUse"><stop offset="0" stop-color="#fff" stop-opacity=".6"/><stop offset="1" stop-color="#fff" stop-opacity=".3"/></linearGradient><path fill="url(#EQR0dRBSN0L83QGXcNy5Ya)" d="M19.071,4.929C15.446,1.304,9.734,1.05,5.809,4.154L5.537,3.881 C5.201,3.545,4.625,3.728,4.545,4.197l-0.412,2.41C4.065,7.005,4.411,7.351,4.81,7.283l2.41-0.412 c0.469-0.08,0.652-0.656,0.316-0.992L7.239,5.583c3.541-2.633,8.76-1.971,11.443,2.006c1.777,2.634,1.777,6.189,0,8.823 c-2.918,4.325-8.843,4.74-12.338,1.245c-1.155-1.155-1.882-2.576-2.182-4.066c-0.099-0.494-0.559-0.827-1.061-0.781 c-0.593,0.054-1.014,0.612-0.896,1.195c0.457,2.248,1.691,4.37,3.708,5.932c3.587,2.779,8.753,2.737,12.298-0.095 C22.958,16.048,23.245,9.103,19.071,4.929z"/><linearGradient id="EQR0dRBSN0L83QGXcNy5Yb" x1="4.294" x2="19.071" y1="4.294" y2="19.071" gradientUnits="userSpaceOnUse"><stop offset="0" stop-color="#fff" stop-opacity=".6"/><stop offset=".493" stop-color="#fff" stop-opacity="0"/><stop offset=".997" stop-color="#fff" stop-opacity=".3"/></linearGradient><path fill="url(#EQR0dRBSN0L83QGXcNy5Yb)" d="M12.008,2.503 c2.535,0,4.917,0.987,6.71,2.779c1.909,1.909,2.918,4.552,2.768,7.25c-0.153,2.735-1.427,5.192-3.587,6.918 c-1.649,1.317-3.745,2.043-5.902,2.043c-2.101,0-4.153-0.693-5.778-1.952c-1.847-1.431-3.065-3.38-3.524-5.636 c-0.028-0.139,0.004-0.279,0.089-0.394C2.871,13.393,3,13.32,3.191,13.305c0.233,0,0.434,0.162,0.479,0.384 c0.331,1.64,1.133,3.134,2.319,4.321C7.595,19.616,9.73,20.5,12,20.5c2.834,0,5.487-1.424,7.096-3.809 c1.893-2.806,1.893-6.576,0-9.382c-1.63-2.417-4.212-3.803-7.084-3.803c-1.844,0-3.597,0.579-5.071,1.675L6.476,5.527l0.409,0.409 l0.297,0.297C7.191,6.242,7.219,6.27,7.203,6.32C7.187,6.37,7.148,6.376,7.136,6.378L4.709,6.792c-0.033,0-0.054-0.02-0.064-0.031 c-0.025-0.03-0.02-0.06-0.019-0.069l0.412-2.41c0.012-0.07,0.08-0.072,0.088-0.072c0.022,0,0.04,0.008,0.058,0.026l0.272,0.272 l0.315,0.315L6.12,4.546C7.785,3.229,9.876,2.503,12.008,2.503 M12.008,2.003c-2.193,0-4.386,0.717-6.198,2.15L5.537,3.881 C5.419,3.763,5.271,3.709,5.126,3.709c-0.268,0-0.529,0.184-0.581,0.488l-0.412,2.41C4.071,6.971,4.355,7.292,4.709,7.292 c0.033,0,0.067-0.003,0.101-0.009l2.41-0.412c0.469-0.08,0.652-0.656,0.316-0.992L7.239,5.583 c1.413-1.051,3.093-1.577,4.773-1.577c2.529,0,5.058,1.193,6.67,3.582c1.777,2.634,1.777,6.189,0,8.823 C17.067,18.804,14.534,20,12,20c-2.048,0-4.095-0.781-5.657-2.343c-1.155-1.155-1.882-2.576-2.183-4.066 c-0.093-0.463-0.504-0.786-0.969-0.786c-0.03,0-0.061,0.001-0.092,0.004c-0.593,0.054-1.014,0.612-0.896,1.195 c0.457,2.248,1.691,4.37,3.708,5.932c1.771,1.372,3.928,2.057,6.084,2.057c2.21,0,4.419-0.719,6.214-2.152 c4.748-3.793,5.035-10.738,0.861-14.912C17.12,2.978,14.564,2.003,12.008,2.003L12.008,2.003z"/><g><linearGradient id="EQR0dRBSN0L83QGXcNy5Yc" x1="9.709" x2="16.619" y1="7.877" y2="14.787" gradientUnits="userSpaceOnUse"><stop offset="0" stop-color="#fff" stop-opacity=".6"/><stop offset="1" stop-color="#fff" stop-opacity=".3"/></linearGradient><path fill="url(#EQR0dRBSN0L83QGXcNy5Yc)" d="M15.203,14.789l-1.167-1.509 c-0.35-0.453-0.563-0.997-0.615-1.567L13,7c0-0.552-0.448-1-1-1h0c-0.552,0-1,0.448-1,1l-0.381,4.885 c-0.075,0.96,0.316,1.898,1.051,2.521l2.119,1.797c0.391,0.391,1.024,0.391,1.414,0l0,0C15.594,15.813,15.594,15.179,15.203,14.789 z"/><linearGradient id="EQR0dRBSN0L83QGXcNy5Yd" x1="9.709" x2="16.619" y1="7.877" y2="14.787" gradientUnits="userSpaceOnUse"><stop offset="0" stop-color="#fff" stop-opacity=".6"/><stop offset=".493" stop-color="#fff" stop-opacity="0"/><stop offset=".997" stop-color="#fff" stop-opacity=".3"/></linearGradient><path fill="url(#EQR0dRBSN0L83QGXcNy5Yd)" d="M12,6.5c0.276,0,0.5,0.224,0.502,0.545 l0.422,4.712c0.06,0.667,0.308,1.299,0.717,1.829l1.167,1.509l0.019,0.025l0.023,0.023c0.094,0.094,0.146,0.22,0.146,0.354 s-0.052,0.259-0.146,0.354c-0.094,0.094-0.22,0.146-0.354,0.146c-0.134,0-0.259-0.052-0.384-0.174l-2.119-1.797 c-0.61-0.518-0.938-1.303-0.876-2.101L11.5,7C11.5,6.724,11.724,6.5,12,6.5 M12,6c-0.552,0-1,0.448-1,1l-0.381,4.885 c-0.075,0.96,0.316,1.898,1.051,2.521l2.119,1.797c0.195,0.195,0.451,0.293,0.707,0.293s0.512-0.098,0.707-0.293h0 c0.391-0.391,0.391-1.024,0-1.414l-1.167-1.509c-0.35-0.453-0.563-0.997-0.615-1.567L13,7C13,6.448,12.552,6,12,6L12,6z"/></g></svg>