<svg xmlns="http://www.w3.org/2000/svg"  viewBox="0 0 24 24" width="48px" height="48px" fill-rule="evenodd" clip-rule="evenodd" baseProfile="basic"><linearGradient id="9IfOIj-SCCC4hEqrHZV3Ia" x1="4.697" x2="19.303" y1="4.697" y2="19.303" gradientUnits="userSpaceOnUse"><stop offset="0" stop-color="#fff" stop-opacity=".6"/><stop offset="1" stop-color="#fff" stop-opacity=".3"/></linearGradient><path fill="url(#9IfOIj-SCCC4hEqrHZV3Ia)" fill-rule="evenodd" d="M11.112,1.856C11.369,1.665,11.68,1.562,12,1.562 c0.32,0,0.631,0.103,0.888,0.294l1.828,1.36c0.036,0.027,0.076,0.047,0.118,0.061c0.042,0.014,0.087,0.021,0.132,0.02l2.278-0.026 c0.32-0.004,0.633,0.096,0.891,0.284c0.259,0.188,0.45,0.455,0.546,0.76l0.68,2.174c0.013,0.043,0.034,0.083,0.06,0.119 c0.026,0.036,0.058,0.068,0.095,0.094l1.858,1.318c0.261,0.185,0.455,0.449,0.554,0.754c0.099,0.304,0.097,0.632-0.005,0.936 l-0.728,2.159c-0.014,0.042-0.022,0.087-0.022,0.131s0.007,0.089,0.022,0.131l0.728,2.159c0.102,0.303,0.104,0.631,0.005,0.936 c-0.099,0.304-0.293,0.569-0.554,0.754l-1.858,1.318c-0.036,0.026-0.068,0.057-0.095,0.094c-0.026,0.036-0.046,0.076-0.06,0.119 l-0.68,2.174c-0.095,0.305-0.287,0.572-0.546,0.76c-0.259,0.188-0.571,0.288-0.891,0.284l-2.278-0.026 c-0.045-0.001-0.089,0.006-0.132,0.02c-0.042,0.014-0.082,0.034-0.118,0.061l-1.828,1.36c-0.257,0.191-0.568,0.294-0.888,0.294 c-0.32,0-0.631-0.103-0.888-0.294l-1.828-1.36c-0.036-0.027-0.076-0.047-0.118-0.061c-0.042-0.014-0.087-0.021-0.132-0.02 l-2.278,0.026c-0.32,0.004-0.633-0.096-0.891-0.284c-0.259-0.188-0.45-0.455-0.546-0.76l-0.68-2.174 c-0.013-0.043-0.034-0.083-0.06-0.119c-0.026-0.036-0.058-0.068-0.095-0.094l-1.858-1.318c-0.261-0.185-0.455-0.449-0.554-0.754 c-0.099-0.304-0.097-0.632,0.005-0.936l0.728-2.159C2.821,12.089,2.828,12.045,2.828,12s-0.007-0.089-0.022-0.131L2.078,9.71 C1.976,9.407,1.974,9.079,2.073,8.774C2.172,8.47,2.366,8.206,2.627,8.021l1.858-1.318C4.521,6.676,4.553,6.645,4.58,6.609 c0.026-0.036,0.046-0.076,0.06-0.119l0.68-2.174c0.095-0.305,0.287-0.572,0.546-0.76c0.259-0.188,0.571-0.288,0.891-0.284 l2.278,0.026c0.045,0.001,0.089-0.006,0.132-0.02c0.042-0.014,0.082-0.034,0.118-0.061L11.112,1.856z" clip-rule="evenodd"/><linearGradient id="9IfOIj-SCCC4hEqrHZV3Ib" x1="4.697" x2="19.303" y1="4.697" y2="19.303" gradientUnits="userSpaceOnUse"><stop offset="0" stop-color="#fff" stop-opacity=".6"/><stop offset=".493" stop-color="#fff" stop-opacity="0"/><stop offset=".997" stop-color="#fff" stop-opacity=".3"/></linearGradient><path fill="url(#9IfOIj-SCCC4hEqrHZV3Ib)" d="M12,2.062c0.211,0,0.42,0.069,0.59,0.195 l1.827,1.359c0.08,0.06,0.168,0.105,0.262,0.136c0.091,0.03,0.186,0.045,0.292,0.045c0,0,0,0,0.001,0l2.289-0.026 c0.21,0,0.411,0.065,0.581,0.189c0.171,0.124,0.299,0.303,0.362,0.505l0.68,2.175c0.03,0.094,0.074,0.183,0.133,0.264 c0.059,0.08,0.129,0.15,0.209,0.207l1.858,1.318c0.172,0.122,0.303,0.3,0.368,0.5c0.065,0.201,0.064,0.421-0.004,0.621 l-0.728,2.158c-0.032,0.094-0.048,0.192-0.048,0.292s0.016,0.198,0.048,0.291l0.728,2.159c0.067,0.2,0.069,0.421,0.004,0.621 c-0.065,0.201-0.196,0.379-0.368,0.501l-1.857,1.318c-0.081,0.057-0.151,0.127-0.211,0.208c-0.058,0.08-0.102,0.168-0.132,0.263 l-0.68,2.174c-0.063,0.201-0.192,0.381-0.362,0.505c-0.17,0.123-0.371,0.189-0.592,0.189c0,0,0,0,0,0l-2.288-0.026 c-0.096,0-0.191,0.015-0.281,0.045c-0.095,0.031-0.183,0.077-0.262,0.135l-1.828,1.36c-0.169,0.126-0.379,0.195-0.59,0.195 s-0.42-0.069-0.59-0.195l-1.827-1.359c-0.08-0.06-0.168-0.105-0.262-0.136c-0.091-0.03-0.186-0.045-0.292-0.045c0,0,0,0-0.001,0 L6.74,20.229c-0.21,0-0.411-0.065-0.581-0.189c-0.171-0.124-0.299-0.303-0.362-0.505l-0.68-2.175 c-0.03-0.094-0.074-0.183-0.133-0.264c-0.059-0.08-0.129-0.15-0.209-0.207l-1.858-1.318c-0.172-0.122-0.303-0.3-0.368-0.5 C2.483,14.87,2.484,14.65,2.552,14.45l0.728-2.158C3.312,12.198,3.328,12.099,3.328,12s-0.016-0.198-0.048-0.291L2.552,9.55 C2.484,9.35,2.483,9.13,2.548,8.929C2.614,8.728,2.744,8.55,2.916,8.428l1.857-1.318c0.081-0.057,0.151-0.127,0.211-0.208 c0.058-0.08,0.102-0.168,0.132-0.263l0.68-2.174C5.859,4.263,5.988,4.084,6.159,3.96c0.17-0.123,0.371-0.189,0.592-0.189 c0,0,0,0,0,0l2.288,0.026c0.096,0,0.191-0.015,0.281-0.045c0.095-0.031,0.183-0.077,0.262-0.135l1.828-1.36 C11.58,2.131,11.789,2.062,12,2.062 M12,1.562c-0.32,0-0.631,0.103-0.888,0.294l-1.828,1.36C9.248,3.242,9.208,3.263,9.166,3.277 c-0.041,0.013-0.084,0.02-0.127,0.02c-0.002,0-0.003,0-0.005,0L6.756,3.271c-0.006,0-0.011,0-0.016,0 c-0.314,0-0.621,0.099-0.875,0.284c-0.259,0.188-0.45,0.455-0.546,0.76L4.639,6.49C4.626,6.532,4.606,6.573,4.58,6.609 C4.553,6.645,4.521,6.677,4.485,6.702L2.627,8.021C2.366,8.206,2.172,8.47,2.073,8.774C1.974,9.079,1.976,9.407,2.078,9.71 l0.728,2.159C2.821,11.911,2.828,11.955,2.828,12s-0.007,0.089-0.022,0.131L2.078,14.29c-0.102,0.303-0.104,0.631-0.005,0.936 c0.099,0.304,0.293,0.569,0.554,0.754l1.858,1.318c0.036,0.026,0.068,0.057,0.095,0.094c0.026,0.036,0.046,0.076,0.06,0.119 l0.68,2.174c0.095,0.305,0.287,0.572,0.546,0.76c0.254,0.185,0.561,0.284,0.875,0.284c0.005,0,0.011,0,0.016,0l2.278-0.026 c0.001,0,0.003,0,0.004,0c0.043,0,0.086,0.007,0.127,0.02c0.042,0.014,0.082,0.034,0.118,0.061l1.828,1.36 c0.257,0.191,0.568,0.294,0.888,0.294s0.631-0.103,0.888-0.294l1.828-1.36c0.036-0.027,0.076-0.047,0.118-0.061 c0.041-0.013,0.084-0.02,0.127-0.02c0.001,0,0.003,0,0.004,0l2.278,0.026c0.006,0,0.011,0,0.016,0c0.314,0,0.621-0.099,0.875-0.284 c0.259-0.188,0.45-0.455,0.546-0.76l0.68-2.174c0.013-0.043,0.034-0.083,0.06-0.119c0.026-0.036,0.058-0.068,0.095-0.094 l1.858-1.318c0.261-0.185,0.455-0.449,0.554-0.754c0.099-0.304,0.097-0.632-0.005-0.936l-0.728-2.159 c-0.014-0.042-0.022-0.087-0.022-0.131s0.007-0.089,0.022-0.131l0.728-2.159c0.102-0.303,0.104-0.631,0.005-0.936 c-0.099-0.304-0.293-0.569-0.554-0.754l-1.858-1.318c-0.036-0.026-0.068-0.057-0.095-0.094c-0.026-0.036-0.046-0.076-0.06-0.119 l-0.68-2.174c-0.095-0.305-0.287-0.572-0.546-0.76c-0.254-0.185-0.561-0.284-0.875-0.284c-0.005,0-0.011,0-0.016,0l-2.278,0.026 c-0.002,0-0.003,0-0.005,0c-0.043,0-0.086-0.007-0.127-0.02c-0.042-0.014-0.082-0.034-0.118-0.061l-1.828-1.36 C12.631,1.665,12.32,1.562,12,1.562L12,1.562z"/><linearGradient id="9IfOIj-SCCC4hEqrHZV3Ic" x1="9.41" x2="13.185" y1="10.107" y2="13.881" gradientUnits="userSpaceOnUse"><stop offset="0" stop-color="#fff" stop-opacity=".7"/><stop offset=".519" stop-color="#fff" stop-opacity=".45"/><stop offset="1" stop-color="#fff" stop-opacity=".55"/></linearGradient><path fill="url(#9IfOIj-SCCC4hEqrHZV3Ic)" d="M9.885,14.007V9.934	c0-0.403,0.327-0.73,0.73-0.73h1.392c0.304,0,0.551,0.247,0.551,0.551v0c0,0.304-0.247,0.551-0.551,0.551h-0.926v1.086h0.843	c0.285,0,0.516,0.231,0.516,0.516v0c0,0.285-0.231,0.516-0.516,0.516h-0.843v1.187h1.02c0.304,0,0.551,0.247,0.551,0.551v0.024	c0,0.304-0.247,0.551-0.551,0.551h-1.486C10.212,14.737,9.885,14.41,9.885,14.007z"/><linearGradient id="9IfOIj-SCCC4hEqrHZV3Id" x1="4.78" x2="8.947" y1="9.946" y2="14.113" gradientUnits="userSpaceOnUse"><stop offset="0" stop-color="#fff" stop-opacity=".7"/><stop offset=".519" stop-color="#fff" stop-opacity=".45"/><stop offset="1" stop-color="#fff" stop-opacity=".55"/></linearGradient><path fill="url(#9IfOIj-SCCC4hEqrHZV3Id)" d="M7.937,14.796	c-0.328,0-0.622-0.203-0.739-0.51L6.11,11.428H6.087l0.026,2.825c0.003,0.299-0.239,0.542-0.537,0.542H5.537	C5.241,14.796,5,14.555,5,14.258v-4.204c0-0.437,0.354-0.791,0.791-0.791h0.036c0.33,0,0.626,0.205,0.741,0.515l1.082,2.9h0.023	L7.653,9.804C7.651,9.506,7.892,9.263,8.19,9.263h0c0.297,0,0.537,0.241,0.537,0.537v4.204C8.728,14.442,8.374,14.796,7.937,14.796	L7.937,14.796z"/><linearGradient id="9IfOIj-SCCC4hEqrHZV3Ie" x1="13.613" x2="18.514" y1="9.064" y2="13.966" gradientUnits="userSpaceOnUse"><stop offset="0" stop-color="#fff" stop-opacity=".7"/><stop offset=".519" stop-color="#fff" stop-opacity=".45"/><stop offset="1" stop-color="#fff" stop-opacity=".55"/></linearGradient><path fill="url(#9IfOIj-SCCC4hEqrHZV3Ie)" d="M17.413,14.737H17.41	c-0.385,0-0.715-0.275-0.785-0.654l-0.559-3.058H16.05l-0.554,3.056c-0.069,0.379-0.399,0.655-0.785,0.655h0	c-0.384,0-0.713-0.273-0.784-0.65L13.14,9.897c-0.068-0.36,0.209-0.693,0.575-0.693h0.064c0.29,0,0.536,0.212,0.579,0.499	l0.497,3.353h0.031l0.508-3.252c0.054-0.345,0.351-0.6,0.701-0.6h0c0.348,0,0.644,0.252,0.7,0.595l0.529,3.257h0.023l0.49-3.352	c0.042-0.287,0.288-0.5,0.579-0.5l0,0c0.367,0,0.643,0.333,0.575,0.694l-0.793,4.189C18.126,14.464,17.796,14.737,17.413,14.737z"/></svg>