<svg xmlns="http://www.w3.org/2000/svg"  viewBox="0 0 24 24" width="48px" height="48px" baseProfile="basic"><linearGradient id="Dk310qmYgW4MLRTAQlDY4a" x1="4.379" x2="19.121" y1="5.379" y2="20.121" gradientUnits="userSpaceOnUse"><stop offset="0" stop-color="#fff" stop-opacity=".6"/><stop offset="1" stop-color="#fff" stop-opacity=".3"/></linearGradient><path fill="url(#Dk310qmYgW4MLRTAQlDY4a)" d="M17,3H8C6.343,3,5,4.343,5,6v9H4c-1.105,0-2,0.895-2,2v1c0,1.657,1.343,3,3,3h3h9 c1.657,0,3-1.343,3-3V6C20,4.343,18.657,3,17,3z"/><linearGradient id="Dk310qmYgW4MLRTAQlDY4b" x1="4.379" x2="19.121" y1="5.379" y2="20.121" gradientUnits="userSpaceOnUse"><stop offset="0" stop-color="#fff" stop-opacity=".6"/><stop offset=".493" stop-color="#fff" stop-opacity="0"/><stop offset=".997" stop-color="#fff" stop-opacity=".3"/></linearGradient><path fill="url(#Dk310qmYgW4MLRTAQlDY4b)" d="M17,3.5c1.378,0,2.5,1.121,2.5,2.5v12 c0,1.379-1.122,2.5-2.5,2.5H8H5c-1.378,0-2.5-1.121-2.5-2.5v-1c0-0.827,0.673-1.5,1.5-1.5h1h0.5V15V6c0-1.379,1.122-2.5,2.5-2.5 H17 M17,3H8C6.343,3,5,4.343,5,6v9H4c-1.105,0-2,0.895-2,2v1c0,1.657,1.343,3,3,3h3h9c1.657,0,3-1.343,3-3V6 C20,4.343,18.657,3,17,3L17,3z"/><linearGradient id="Dk310qmYgW4MLRTAQlDY4c" x1="4.232" x2="14.146" y1="13.939" y2="23.854" gradientUnits="userSpaceOnUse"><stop offset="0" stop-color="#fff" stop-opacity=".7"/><stop offset=".519" stop-color="#fff" stop-opacity=".45"/><stop offset="1" stop-color="#fff" stop-opacity=".55"/></linearGradient><path fill="url(#Dk310qmYgW4MLRTAQlDY4c)" d="M14,18v-1c0-1.105-0.895-2-2-2H4	c-1.105,0-2,0.895-2,2v1c0,1.657,1.343,3,3,3h12h0C15.343,21,14,19.657,14,18z"/><linearGradient id="Dk310qmYgW4MLRTAQlDY4d" x1="13.043" x2="15.957" y1="6.543" y2="9.457" gradientUnits="userSpaceOnUse"><stop offset="0" stop-color="#fff" stop-opacity=".7"/><stop offset=".519" stop-color="#fff" stop-opacity=".45"/><stop offset="1" stop-color="#fff" stop-opacity=".55"/></linearGradient><path fill="url(#Dk310qmYgW4MLRTAQlDY4d)" d="M16,9h-3c-0.553,0-1-0.448-1-1s0.447-1,1-1	h3c0.553,0,1,0.448,1,1S16.553,9,16,9z"/><linearGradient id="Dk310qmYgW4MLRTAQlDY4e" x1="13.043" x2="15.957" y1="10.543" y2="13.457" gradientUnits="userSpaceOnUse"><stop offset="0" stop-color="#fff" stop-opacity=".7"/><stop offset=".519" stop-color="#fff" stop-opacity=".45"/><stop offset="1" stop-color="#fff" stop-opacity=".55"/></linearGradient><path fill="url(#Dk310qmYgW4MLRTAQlDY4e)" d="M16,13h-3c-0.553,0-1-0.448-1-1	s0.447-1,1-1h3c0.553,0,1,0.448,1,1S16.553,13,16,13z"/><linearGradient id="Dk310qmYgW4MLRTAQlDY4f" x1="8.293" x2="9.707" y1="7.293" y2="8.707" gradientUnits="userSpaceOnUse"><stop offset="0" stop-color="#fff" stop-opacity=".7"/><stop offset=".519" stop-color="#fff" stop-opacity=".45"/><stop offset="1" stop-color="#fff" stop-opacity=".55"/></linearGradient><circle cx="9" cy="8" r="1" fill="url(#Dk310qmYgW4MLRTAQlDY4f)"/><linearGradient id="Dk310qmYgW4MLRTAQlDY4g" x1="8.293" x2="9.707" y1="11.293" y2="12.707" gradientUnits="userSpaceOnUse"><stop offset="0" stop-color="#fff" stop-opacity=".7"/><stop offset=".519" stop-color="#fff" stop-opacity=".45"/><stop offset="1" stop-color="#fff" stop-opacity=".55"/></linearGradient><circle cx="9" cy="12" r="1" fill="url(#Dk310qmYgW4MLRTAQlDY4g)"/></svg>