<svg xmlns="http://www.w3.org/2000/svg"  viewBox="0 0 24 24" width="48px" height="48px"><linearGradient id="MLk3ONGJxr8DcdO7JEgOxa" x1="4.08" x2="19.699" y1="6.506" y2="22.126" gradientUnits="userSpaceOnUse"><stop offset="0" stop-color="#fff" stop-opacity=".6"/><stop offset="1" stop-color="#fff" stop-opacity=".3"/></linearGradient><path fill="url(#MLk3ONGJxr8DcdO7JEgOxa)" d="M20,9h-3.06c-0.13-0.82-0.52-1.58-1.11-2.17L14,5V4c0-0.552-0.448-1-1-1H8 C7.448,3,7,3.448,7,4v1L5.17,6.83C4.42,7.58,4,8.6,4,9.66v5.31c-0.42,0.41-0.8,0.86-1.08,1.33c-1.15,1.88-0.41,3.26,1,4.12 c0.59,0.36,1.2,0.57,1.79,0.56C5.81,20.99,5.9,21,6,21h14c1.1,0,2-0.9,2-2v-8C22,9.9,21.1,9,20,9z"/><linearGradient id="MLk3ONGJxr8DcdO7JEgOxb" x1="4.08" x2="19.699" y1="6.506" y2="22.126" gradientUnits="userSpaceOnUse"><stop offset="0" stop-color="#fff" stop-opacity=".6"/><stop offset=".493" stop-color="#fff" stop-opacity="0"/><stop offset=".997" stop-color="#fff" stop-opacity=".3"/></linearGradient><path fill="url(#MLk3ONGJxr8DcdO7JEgOxb)" d="M13,3.5c0.276,0,0.5,0.224,0.5,0.5v1 v0.207l0.146,0.146l1.83,1.83c0.513,0.513,0.857,1.186,0.97,1.895L16.513,9.5h0.427H20c0.827,0,1.5,0.673,1.5,1.5v8 c0,0.827-0.673,1.5-1.5,1.5H6c-0.074,0-0.142-0.008-0.24-0.018L5.695,20.48H5.67c-0.458,0-0.959-0.164-1.489-0.487 c-0.487-0.297-1.103-0.801-1.276-1.519c-0.137-0.566,0.012-1.21,0.446-1.918c0.238-0.4,0.575-0.813,1-1.228L4.5,15.181V14.97V9.66 c0-0.923,0.373-1.826,1.024-2.476l1.83-1.83L7.5,5.207V5V4c0-0.276,0.224-0.5,0.5-0.5H13 M13,3H8C7.448,3,7,3.448,7,4v1L5.17,6.83 C4.42,7.58,4,8.6,4,9.66v5.31c-0.42,0.41-0.8,0.86-1.08,1.33c-1.15,1.88-0.41,3.26,1,4.12c0.577,0.352,1.172,0.56,1.75,0.56 c0.014,0,0.027,0,0.04,0C5.81,20.99,5.9,21,6,21h14c1.1,0,2-0.9,2-2v-8c0-1.1-0.9-2-2-2h-3.06c-0.13-0.82-0.52-1.58-1.11-2.17 L14,5V4C14,3.448,13.552,3,13,3L13,3z"/><linearGradient id="MLk3ONGJxr8DcdO7JEgOxc" x1="4.433" x2="14.432" y1="7.567" y2="17.567" gradientUnits="userSpaceOnUse"><stop offset="0" stop-color="#fff" stop-opacity=".7"/><stop offset=".519" stop-color="#fff" stop-opacity=".45"/><stop offset="1" stop-color="#fff" stop-opacity=".55"/></linearGradient><path fill="url(#MLk3ONGJxr8DcdO7JEgOxc)" d="M14,5l-1.54,1.54 C11.53,7.47,11,8.74,11,10.07V21H6c-0.1,0-0.19-0.01-0.29-0.02c0.84-0.01,1.66-0.46,2.33-1.57c1.15-1.88,1.45-4.97,0.04-5.83 c-1.07-0.65-2.8,0.15-4.08,1.39V9.66C4,8.6,4.42,7.58,5.17,6.83L7,5H14z"/><linearGradient id="MLk3ONGJxr8DcdO7JEgOxd" x1="14.426" x2="22.369" y1="11.514" y2="19.456" gradientUnits="userSpaceOnUse"><stop offset="0" stop-color="#fff" stop-opacity=".7"/><stop offset=".519" stop-color="#fff" stop-opacity=".45"/><stop offset="1" stop-color="#fff" stop-opacity=".55"/></linearGradient><path fill="url(#MLk3ONGJxr8DcdO7JEgOxd)" d="M22,11v8c0,1.1-0.9,2-2,2h-5 c1.1,0,2-0.9,2-2V9.66c0-0.22-0.02-0.44-0.06-0.66H20C21.1,9,22,9.9,22,11z"/></svg>