<svg xmlns="http://www.w3.org/2000/svg"  viewBox="0 0 24 24" width="48px" height="48px" baseProfile="basic"><linearGradient id="Rp-cLh5DhY7YWD9C4VksYa" x1="6.688" x2="17.305" y1="6.688" y2="17.305" gradientUnits="userSpaceOnUse"><stop offset="0" stop-color="#fff" stop-opacity=".6"/><stop offset="1" stop-color="#fff" stop-opacity=".3"/></linearGradient><path fill="url(#Rp-cLh5DhY7YWD9C4VksYa)" d="M22.76,4.876l-2.725-2.699C19.651,1.797,19,2.069,19,2.608V4c-1.103,0-3.615,0-4.334,0	c-0.419-0.151-0.886-0.278-1.453-0.332V2.971c0-0.642-0.521-1.163-1.163-1.163c-0.642,0-1.163,0.521-1.163,1.163v0.943	C8.941,4.563,7.676,6.344,7.676,8.624c0,5.043,5.239,4.132,5.239,6.754c0,0.505-0.239,1.604-1.539,1.604	c-0.578,0-1.076-0.163-1.482-0.375C9.266,16.278,8.501,16.475,8.039,17C7.012,17,5.712,17,5,17v-1.392	c0-0.54-0.651-0.811-1.035-0.431L1.24,17.876c-0.347,0.344-0.347,0.904,0,1.247l2.725,2.699C4.349,22.203,5,21.931,5,21.392V20	c1.215,0,4.147,0,4.5,0c0.049,0,0.095-0.01,0.142-0.014c0.351,0.102,0.723,0.184,1.132,0.227v0.817c0,0.642,0.521,1.163,1.163,1.163	s1.163-0.521,1.163-1.163v-1.025c2.153-0.66,3.314-2.624,3.314-4.879c0-4.806-5.304-4.149-5.304-6.654c0-1.475,1.16-1.63,1.561-1.63	c0.396,0,0.745,0.094,1.042,0.228c0.445,0.201,0.943,0.153,1.36-0.07c1,0,2.983,0,3.929,0v1.392c0,0.54,0.651,0.811,1.035,0.431	l2.725-2.699C23.106,5.78,23.106,5.22,22.76,4.876z"/><linearGradient id="Rp-cLh5DhY7YWD9C4VksYb" x1="6.688" x2="17.305" y1="6.688" y2="17.305" gradientUnits="userSpaceOnUse"><stop offset="0" stop-color="#fff" stop-opacity=".6"/><stop offset=".493" stop-color="#fff" stop-opacity="0"/><stop offset=".997" stop-color="#fff" stop-opacity=".3"/></linearGradient><path fill="url(#Rp-cLh5DhY7YWD9C4VksYb)" d="M12.051,2.308c0.365,0,0.663,0.297,0.663,0.663v0.698v0.455l0.453,0.043	c0.449,0.043,0.872,0.139,1.331,0.304L14.579,4.5h0.087H19h0.5V4V2.608c0-0.105,0.11-0.108,0.112-0.108	c0.027,0,0.049,0.01,0.071,0.032l2.725,2.699C22.48,5.303,22.52,5.398,22.52,5.5s-0.04,0.197-0.112,0.268l-2.725,2.699	C19.66,8.49,19.638,8.5,19.611,8.5C19.61,8.5,19.5,8.497,19.5,8.392V7V6.5H19h-3.929h-0.125l-0.11,0.059	c-0.169,0.09-0.352,0.138-0.53,0.138c-0.136,0-0.267-0.028-0.389-0.083c-0.4-0.181-0.82-0.272-1.248-0.272	c-0.951,0-2.061,0.558-2.061,2.13c0,1.351,1.16,1.966,2.281,2.561c1.486,0.788,3.023,1.603,3.023,4.093	c0,2.154-1.134,3.84-2.96,4.401l-0.353,0.108v0.37v1.025c0,0.365-0.297,0.663-0.663,0.663c-0.365,0-0.663-0.297-0.663-0.663v-0.817	v-0.45l-0.448-0.047c-0.339-0.036-0.681-0.104-1.045-0.21L9.69,19.479l-0.095,0.009L9.5,19.5H5H4.5V20v1.392	c0,0.105-0.11,0.108-0.112,0.108c-0.027,0-0.049-0.01-0.071-0.032l-2.725-2.699C1.52,18.697,1.48,18.602,1.48,18.5	s0.04-0.197,0.112-0.268l2.725-2.699C4.34,15.51,4.362,15.5,4.388,15.5c0.001,0,0.112,0.003,0.112,0.108V17v0.5H5h3.039h0.226	l0.149-0.169c0.213-0.241,0.52-0.385,0.822-0.385c0.151,0,0.295,0.035,0.427,0.104c0.548,0.287,1.124,0.432,1.714,0.432	c1.408,0,2.039-1.057,2.039-2.104c0-1.402-1.148-1.999-2.257-2.576c-1.466-0.762-2.982-1.551-2.982-4.178	c0-2.023,1.1-3.646,2.87-4.236l0.342-0.114v-0.36V2.971C11.388,2.605,11.685,2.308,12.051,2.308 M12.051,1.808	c-0.642,0-1.163,0.521-1.163,1.163v0.943C8.941,4.563,7.676,6.344,7.676,8.624c0,5.043,5.239,4.132,5.239,6.754	c0,0.505-0.239,1.604-1.539,1.604c-0.578,0-1.076-0.163-1.482-0.375c-0.21-0.11-0.435-0.161-0.659-0.161	c-0.447,0-0.889,0.204-1.198,0.554C7.012,17,5.712,17,5,17v-1.392C5,15.243,4.701,15,4.389,15c-0.148,0-0.3,0.055-0.423,0.177	L1.24,17.876c-0.347,0.344-0.347,0.904,0,1.247l2.725,2.699C4.089,21.945,4.24,22,4.388,22C4.701,22,5,21.757,5,21.392V20	c1.215,0,4.147,0,4.5,0c0.049,0,0.095-0.01,0.142-0.014c0.351,0.102,0.723,0.184,1.132,0.227v0.817c0,0.642,0.521,1.163,1.163,1.163	s1.163-0.521,1.163-1.163v-1.025c2.153-0.66,3.314-2.624,3.314-4.879c0-4.806-5.304-4.149-5.304-6.654c0-1.475,1.16-1.63,1.561-1.63	c0.396,0,0.745,0.094,1.042,0.228c0.192,0.087,0.394,0.127,0.595,0.127c0.265,0,0.528-0.07,0.765-0.197c1,0,2.983,0,3.929,0v1.392	C19,8.757,19.299,9,19.611,9c0.148,0,0.3-0.055,0.423-0.177l2.725-2.699c0.347-0.344,0.347-0.904,0-1.247l-2.725-2.699	C19.911,2.055,19.76,2,19.612,2C19.299,2,19,2.243,19,2.608V4c-1.103,0-3.615,0-4.334,0c-0.419-0.151-0.886-0.278-1.453-0.332V2.971	C13.213,2.328,12.693,1.808,12.051,1.808L12.051,1.808z"/><linearGradient id="Rp-cLh5DhY7YWD9C4VksYc" x1="6.659" x2="17.276" y1="6.718" y2="17.334" gradientUnits="userSpaceOnUse"><stop offset="0" stop-color="#fff" stop-opacity=".7"/><stop offset=".519" stop-color="#fff" stop-opacity=".45"/><stop offset="1" stop-color="#fff" stop-opacity=".55"/></linearGradient><path fill="url(#Rp-cLh5DhY7YWD9C4VksYc)" d="M16.413,15.125c0-4.806-5.304-4.149-5.304-6.654c0-1.475,1.16-1.63,1.561-1.63	c0.396,0,0.745,0.094,1.042,0.228c0.698,0.315,1.525,0.023,1.966-0.602c0.566-0.801,0.273-1.927-0.621-2.33	c-0.491-0.221-1.102-0.399-1.844-0.469V2.971c0-0.642-0.521-1.163-1.163-1.163s-1.163,0.521-1.163,1.163v0.943	c-1.947,0.649-3.212,2.431-3.212,4.71c0,5.043,5.239,4.132,5.239,6.754c0,0.505-0.239,1.604-1.539,1.604	c-0.578,0-1.076-0.163-1.482-0.375c-0.689-0.361-1.544-0.094-1.983,0.548l-0.047,0.068c-0.508,0.742-0.302,1.781,0.479,2.225	c0.657,0.373,1.46,0.663,2.43,0.764v0.817c0,0.642,0.521,1.163,1.163,1.163c0.642,0,1.163-0.521,1.163-1.163v-1.025	C15.252,19.344,16.413,17.38,16.413,15.125z"/></svg>